<svg width="266" height="41" viewBox="0 0 266 41" fill="none" xmlns="http://www.w3.org/2000/svg">
<path d="M14.1314 28.0152V30.5606L32.0227 30.6212V10.7424L14.1314 10.803V13.3485H17.1461V16.9848H17.5175V13.3485H29.2046V28.0152H17.5393V25.2273H18.1946V18.803H20.4229V25.2273H22.1268V18.803H23.9618V25.2273H25.5346V17.4697C25.5346 17.1061 25.4036 16.9848 25.0104 16.9848H17.5175H17.1461H16.2286V25.2273H17.1461V28.0152H14.1314Z" fill="white"/>
<path fill-rule="evenodd" clip-rule="evenodd" d="M0.5 40.5V0.5H44.9332V40.5H0.5ZM3.64571 3.40909V37.8333H41.7875L41.853 3.40909H3.64571Z" fill="white"/>
<path d="M25.0104 16.9848H16.2286M25.0104 16.9848C25.4036 16.9848 25.5346 17.1061 25.5346 17.4697V25.2273H23.9618V18.803H22.1268V25.2273H20.4229V18.803H18.1946V25.2273H17.5393V28.0152H29.2046V13.3485H17.5175V16.9848M25.0104 16.9848H17.5175M17.5175 16.9848H17.1461M17.1461 16.9848V13.3485H14.1314V10.803L32.0227 10.7424V30.6212L14.1314 30.5606V28.0152H17.1461V25.2273H16.2286V16.9848M17.1461 16.9848H16.2286M0.5 40.5V0.5H44.9332V40.5H0.5ZM3.64572 37.8333V3.40909H41.853L41.7875 37.8333H3.64572Z" stroke="white"/>
<path d="M57.2236 28.5228V17.1591H53.8199V14.8864H61.9037V17.1591H58.5V28.5228H57.2236Z" fill="white"/>
<path fill-rule="evenodd" clip-rule="evenodd" d="M64.4565 28.5228V14.8864H69.9876C73.1786 14.6022 73.3913 20.2841 70.4131 21.1364C72.7531 21.9886 73.8168 26.8182 69.9876 28.5228H64.4565ZM66.1584 22.8409V26.8182H69.9876C71.0706 25.9561 71.5508 24.7542 70.4131 22.8409H66.1584ZM66.1584 17.1591V20.5682H69.9876C70.9577 19.1364 71.0168 18.3839 69.9876 17.1591H66.1584Z" fill="white"/>
<path fill-rule="evenodd" clip-rule="evenodd" d="M74.6677 23.4091V19.4318C75.0708 16.2403 75.6979 14.9683 78.0715 14.3181H82.3261C84.8133 15.0695 85.6954 16.0419 85.7299 19.4318V23.4091C85.7825 27.0918 84.9066 28.217 81.9007 28.5228H77.646C75.7108 27.6011 74.994 26.5716 74.6677 23.4091ZM81.4752 26.25H78.4969C77.2818 25.9002 76.8974 25.2944 76.7951 23.4091V18.8636C77.1112 17.2862 77.5279 16.7236 78.9224 16.5909H81.9007C83.1771 16.5909 83.4781 17.7832 83.6025 19.4318V23.9773C83.6025 25.3977 82.5389 26.25 81.4752 26.25Z" fill="white"/>
<path d="M87.8572 14.8863H89.9845V22.8409L93.8137 16.0227V14.8863H96.3665V28.5227H94.2392V19.4318L89.9845 26.25V28.5227H87.8572V14.8863Z" fill="white"/>
<path d="M104.876 14.3181H107.003V21.1363H107.854L111.258 14.3181H113.811L109.981 21.1363V22.2727L113.811 28.5227H111.683L107.854 22.8409H107.003V28.5227H104.876V14.3181Z" fill="white"/>
<path fill-rule="evenodd" clip-rule="evenodd" d="M116.151 27.9545V14.3181H121.682C124.873 14.034 125.086 19.7158 122.107 20.5681C124.447 21.4204 125.511 26.2499 121.682 27.9545H116.151ZM117.853 22.2727V26.2499H121.682C122.765 25.3879 123.245 24.1859 122.107 22.2727H117.853ZM117.853 16.5909V19.9999H121.682C122.652 18.5682 122.711 17.8157 121.682 16.5909H117.853Z" fill="white"/>
<path fill-rule="evenodd" clip-rule="evenodd" d="M150.401 32.5V14.3181H156.783C159.336 14.3181 160.399 15.7386 160.187 19.4318V22.8409C160.187 25.3977 159.548 27.9545 157.208 27.9545H152.528V32.5H150.401ZM152.528 16.5909V25.1136L156.454 25.1119C157.655 25.0694 158.059 24.2248 158.059 22.8409V19.4318C158.059 17.7272 157.421 16.5909 155.932 16.5909H152.528Z" fill="white"/>
<path d="M175.716 27.9545V16.5909H172.312V14.3182H180.396V16.5909H176.992V27.9545H175.716Z" fill="white"/>
<path d="M182.736 28.5227V14.3182H184.864V20H189.544V14.3182H191.671V28.5227H189.544V22.8409H184.864V28.5227H182.736Z" fill="white"/>
<path d="M201.56 28.5227V14.3182L203.688 14.3182V28.5227H201.56Z" fill="white"/>
<path d="M205.306 14.255H207.433V22.2096L211.263 15.3914V14.255H213.815V29.0278H211.688V18.8005L207.433 25.6187V29.0278H205.306V14.255Z" fill="white"/>
<path d="M219.326 29.0909V13.75H221.879L225.496 23.9773L228.899 13.75H231.665V29.0909H229.963V18.2955L225.496 27.9546L221.241 18.2955V29.0909H219.326Z" fill="white"/>
<path fill-rule="evenodd" clip-rule="evenodd" d="M233.792 23.9773V18.2955C233.792 16.0227 234.218 13.75 236.345 13.75H241.025C242.302 13.75 243.152 14.6023 243.152 16.0227V22.2727H235.92V24.5455C235.92 25.6818 236.77 26.25 237.621 26.25H242.302V27.3864C242.302 28.5228 241.238 28.5228 240.174 28.5228H237.196C234.856 28.5228 233.792 27.1023 233.792 23.9773ZM235.92 18.2955V20H240.6V17.7273C240.6 17.1591 240.387 16.5909 239.749 16.5909H237.196C236.345 16.5909 235.92 17.4432 235.92 18.2955Z" fill="white"/>
<path d="M248.045 16.0227H244.642V13.75H252.725V16.0227H249.322V28.5228H248.045V16.0227Z" fill="white"/>
<path fill-rule="evenodd" clip-rule="evenodd" d="M255.066 31.9319V13.75H261.448C264 13.75 265.064 15.1705 264.851 18.8637V22.2727C264.851 24.8296 264.213 27.3864 261.873 27.3864H257.193V31.9319H255.066ZM257.193 16.0227V24.5455L261.119 24.5438C262.32 24.5012 262.724 23.6566 262.724 22.2727V18.8637C262.724 17.1591 262.086 16.0227 260.597 16.0227H257.193Z" fill="white"/>
<path d="M206.35 12.0455V10.5H209.892H212.669L212.732 12.0455H211.455H206.35Z" fill="white"/>
<path fill-rule="evenodd" clip-rule="evenodd" d="M140.19 14.3181H146.997V25.6818H148.273V31.3636H145.721V27.9545H139.339V31.3636H137.637V25.6818L139.764 14.8863C139.813 14.4211 139.786 14.3082 140.19 14.3181ZM145.295 16.5909V25.6818H140.19L141.891 16.5909H145.295Z" fill="white"/>
<path d="M88.7081 13V11.4545H92.2501H95.0272L95.0901 13H93.8137H88.7081Z" fill="white"/>
<path fill-rule="evenodd" clip-rule="evenodd" d="M170.61 27.9545V19.9999C170.61 17.1591 170.185 14.3181 167.632 14.3181H163.803C162.866 14.9187 162.599 15.3773 162.952 16.5909H167.207C168.27 16.5909 168.53 17.4391 168.483 18.2954V19.9999H164.228C162.527 19.9999 161.676 21.1363 161.676 22.8409V26.8182C161.676 27.9545 162.314 28.5227 163.803 28.5227H166.356H166.568H170.61V27.9545ZM163.803 25.6818V23.4091C164.026 22.1562 164.352 21.8824 165.079 21.7045H167.207C167.633 21.7278 167.81 21.8705 168.058 22.2727V25.6818C167.894 26.5594 167.526 26.693 166.781 26.8182H164.654C163.964 26.6522 163.791 26.3914 163.803 25.6818Z" fill="white"/>
<path fill-rule="evenodd" clip-rule="evenodd" d="M195.926 14.3182H193.798V28.5227H197.628H199.755V25.6818C199.755 23.9773 199.762 22.2046 199.762 20.5H196.006L195.926 14.3182ZM198.228 24.5V22.8425C197.814 22.8428 198.143 22.8419 197.824 22.8425C197.168 22.8439 196.164 22.845 195.451 22.8409C195.422 23.5628 195.438 23.962 195.451 24.5C195.463 24.9972 195.472 25.6345 195.451 26.25H198.228V24.5Z" fill="white"/>
<path fill-rule="evenodd" clip-rule="evenodd" d="M135.466 27.9545V19.9999C135.466 17.1591 135.04 14.3182 132.488 14.3182H128.658C127.722 14.9187 127.454 15.3773 127.808 16.5909H132.062C133.126 16.5909 133.385 17.4391 133.339 18.2954V19.9999H129.084C127.382 19.9999 126.531 21.1363 126.531 22.8409V26.8182C126.531 27.9545 127.169 28.5227 128.658 28.5227H131.211H131.424H135.466V27.9545ZM128.658 25.6818V23.4091C128.882 22.1562 129.207 21.8824 129.935 21.7045H132.062C132.489 21.7278 132.665 21.8705 132.913 22.2727V25.6818C132.75 26.5594 132.382 26.693 131.637 26.8182H129.509C128.819 26.6522 128.646 26.3914 128.658 25.6818Z" fill="white"/>
<path d="M78.4969 26.25C78.4969 26.25 80.4115 26.25 81.4752 26.25M78.4969 26.25C77.2818 25.9002 76.8974 25.2944 76.7951 23.4091V18.8636C77.1112 17.2862 77.5279 16.7236 78.9224 16.5909H81.9007C83.1771 16.5909 83.4781 17.7832 83.6025 19.4318M78.4969 26.25H81.4752M81.4752 26.25C82.5389 26.25 83.6025 25.3977 83.6025 23.9773M83.6025 23.9773C83.6025 22.5568 83.6025 19.4318 83.6025 19.4318M83.6025 23.9773V19.4318M89.9845 22.8409V14.8863H87.8572V28.5227H89.9845V26.25L94.2392 19.4318V28.5227H96.3665V14.8863H93.8137V16.0227M89.9845 22.8409C91.4799 20.1782 92.3183 18.6854 93.8137 16.0227M89.9845 22.8409L93.8137 16.0227M150.401 14.3181V32.5H152.528V27.9545H157.208C159.548 27.9545 160.186 25.3977 160.186 22.8409V19.4318C160.399 15.7386 159.336 14.3181 156.783 14.3181M150.401 14.3181C150.401 14.3181 154.23 14.3181 156.783 14.3181M150.401 14.3181H156.783M152.528 16.5909V25.1136L156.454 25.1119M152.528 16.5909C152.528 16.5909 154.443 16.5909 155.932 16.5909M152.528 16.5909H155.932M155.932 16.5909C157.421 16.5909 158.059 17.7272 158.059 19.4318M158.059 19.4318C158.059 19.4318 158.059 21.4204 158.059 22.8409M158.059 19.4318V22.8409M158.059 22.8409C158.059 24.2248 157.655 25.0694 156.454 25.1119M156.357 25.1136C156.39 25.1136 156.422 25.1131 156.454 25.1119M199.762 20.5H196.006L195.926 14.3182H193.798V28.5227H197.628H199.755V25.6818M199.762 20.5C199.762 22.2046 199.755 23.9773 199.755 25.6818M199.762 20.5C199.762 22.497 199.755 27.3864 199.755 25.6818M198.228 22.8425C198.228 22.8425 198.228 23.0795 198.228 24.5M198.228 22.8425V24.5M198.228 22.8425C197.814 22.8428 198.142 22.8419 197.824 22.8425C197.168 22.8439 196.164 22.845 195.451 22.8409C195.422 23.5628 195.438 23.962 195.451 24.5C195.463 24.9972 195.472 25.6345 195.451 26.25H198.228V24.5M233.792 23.9773C233.792 20.8523 233.792 20.5682 233.792 18.2955M233.792 23.9773C233.792 27.1023 234.856 28.5228 237.196 28.5228M233.792 23.9773V18.2955M233.792 18.2955C233.792 16.0227 234.218 13.75 236.345 13.75M236.345 13.75C238.472 13.75 239.749 13.75 241.025 13.75M236.345 13.75H241.025M241.025 13.75C242.302 13.75 243.152 14.6023 243.152 16.0227M243.152 16.0227C243.152 17.4432 243.152 22.2727 243.152 22.2727M243.152 16.0227V22.2727M243.152 22.2727H235.92M235.92 22.2727C235.92 22.2727 235.92 23.4091 235.92 24.5455M235.92 22.2727V24.5455M235.92 24.5455C235.92 25.6818 236.77 26.25 237.621 26.25M237.621 26.25C238.472 26.25 242.302 26.25 242.302 26.25M237.621 26.25H242.302M242.302 26.25C242.302 26.25 242.302 26.25 242.302 27.3864M242.302 26.25V27.3864M242.302 27.3864C242.302 28.5228 241.238 28.5228 240.174 28.5228M240.174 28.5228C239.111 28.5228 239.536 28.5228 237.196 28.5228M240.174 28.5228H237.196M235.92 20C235.92 20 235.92 19.1477 235.92 18.2955M235.92 20H240.6V17.7273C240.6 17.1591 240.387 16.5909 239.749 16.5909M235.92 20V18.2955M235.92 18.2955C235.92 17.4432 236.345 16.5909 237.196 16.5909M237.196 16.5909C238.047 16.5909 239.749 16.5909 239.749 16.5909M237.196 16.5909H239.749M261.022 24.5455C261.055 24.5455 261.087 24.5449 261.119 24.5438M261.119 24.5438C262.32 24.5012 262.724 23.6566 262.724 22.2727V18.8637C262.724 17.1591 262.086 16.0227 260.597 16.0227H257.193V24.5455L261.119 24.5438ZM57.2236 28.5228V17.1591H53.8199V14.8864H61.9037V17.1591H58.5V28.5228H57.2236ZM64.4565 28.5228V14.8864H69.9876C73.1786 14.6022 73.3913 20.2841 70.4131 21.1364C72.7531 21.9886 73.8168 26.8182 69.9876 28.5228H64.4565ZM66.1584 26.8182V22.8409H70.4131C71.5508 24.7542 71.0706 25.9561 69.9876 26.8182H66.1584ZM66.1584 20.5682V17.1591H69.9876C71.0168 18.3839 70.9577 19.1364 69.9876 20.5682H66.1584ZM74.6677 23.4091V19.4318C75.0708 16.2403 75.6979 14.9683 78.0715 14.3181H82.3261C84.8133 15.0695 85.6954 16.0419 85.7299 19.4318V23.4091C85.7825 27.0918 84.9066 28.217 81.9007 28.5228H77.646C75.7108 27.6011 74.994 26.5716 74.6677 23.4091ZM104.876 14.3181H107.003V21.1363H107.854L111.258 14.3181H113.811L109.981 21.1363V22.2727L113.811 28.5227H111.683L107.854 22.8409H107.003V28.5227H104.876V14.3181ZM116.151 27.9545V14.3181H121.682C124.873 14.034 125.086 19.7158 122.107 20.5681C124.447 21.4204 125.511 26.2499 121.682 27.9545H116.151ZM117.853 26.2499V22.2727H122.107C123.245 24.1859 122.765 25.3879 121.682 26.2499H117.853ZM117.853 19.9999V16.5909H121.682C122.711 17.8157 122.652 18.5682 121.682 19.9999H117.853ZM140.19 14.3181H146.997V25.6818H148.273V31.3636H145.721V27.9545H139.339V31.3636H137.637V25.6818L139.764 14.8863C139.813 14.4211 139.786 14.3082 140.19 14.3181ZM145.295 25.6818V16.5909H141.891L140.19 25.6818H145.295ZM170.61 27.9545V19.9999C170.61 17.1591 170.185 14.3181 167.632 14.3181H163.803C162.866 14.9187 162.599 15.3773 162.952 16.5909H167.207C168.27 16.5909 168.53 17.4391 168.483 18.2954V19.9999H164.228C162.527 19.9999 161.676 21.1363 161.676 22.8409V26.8182C161.676 27.9545 162.314 28.5227 163.803 28.5227H166.356H166.568H170.61V27.9545ZM163.803 23.4091V25.6818C163.791 26.3914 163.964 26.6522 164.654 26.8182H166.781C167.526 26.693 167.894 26.5594 168.058 25.6818V22.2727C167.81 21.8705 167.633 21.7278 167.207 21.7045H165.079C164.352 21.8824 164.026 22.1562 163.803 23.4091ZM175.716 27.9545V16.5909H172.312V14.3182H180.396V16.5909H176.992V27.9545H175.716ZM182.736 28.5227V14.3182H184.864V20H189.544V14.3182H191.671V28.5227H189.544V22.8409H184.864V28.5227H182.736ZM205.306 14.255H207.433V22.2096L211.263 15.3914V14.255H213.815V29.0278H211.688V18.8005L207.433 25.6187V29.0278H205.306V14.255ZM206.35 12.0455V10.5H209.892H212.669L212.732 12.0455H211.455H206.35ZM201.56 28.5227V14.3182L203.688 14.3182V28.5227H201.56ZM219.326 29.0909V13.75H221.879L225.496 23.9773L228.899 13.75H231.665V29.0909H229.963V18.2955L225.496 27.9546L221.241 18.2955V29.0909H219.326ZM248.045 16.0227H244.642V13.75H252.725V16.0227H249.322V28.5228H248.045V16.0227ZM255.066 31.9319V13.75H261.448C264 13.75 265.064 15.1705 264.851 18.8637V22.2727C264.851 24.8296 264.213 27.3864 261.873 27.3864H257.193V31.9319H255.066ZM88.7081 13V11.4545H92.2501H95.0272L95.0902 13H93.8137H88.7081ZM135.466 27.9545V19.9999C135.466 17.1591 135.04 14.3182 132.488 14.3182H128.658C127.722 14.9187 127.454 15.3773 127.808 16.5909H132.062C133.126 16.5909 133.385 17.4391 133.339 18.2954V19.9999H129.084C127.382 19.9999 126.531 21.1363 126.531 22.8409V26.8182C126.531 27.9545 127.169 28.5227 128.658 28.5227H131.211H131.424H135.466V27.9545ZM128.658 23.4091V25.6818C128.647 26.3914 128.819 26.6522 129.509 26.8182H131.637C132.382 26.693 132.75 26.5594 132.913 25.6818V22.2727C132.665 21.8705 132.489 21.7278 132.062 21.7045H129.935C129.207 21.8824 128.882 22.1562 128.658 23.4091Z" stroke="white"/>
</svg>
