<svg width="267" height="41" viewBox="0 0 267 41" fill="none" xmlns="http://www.w3.org/2000/svg">
<path d="M14.1902 28.0152V30.5606L32.1586 30.6212V10.7424L14.1902 10.803V13.3485H17.2178V16.9848H17.5909V13.3485H29.3284V28.0152H17.6127V25.2273H18.2709V18.803H20.5087V25.2273H22.22V18.803H24.0629V25.2273H25.6426V17.4697C25.6426 17.1061 25.5109 16.9848 25.116 16.9848H17.5909H17.2178H16.2964V25.2273H17.2178V28.0152H14.1902Z" fill="#27563A"/>
<path fill-rule="evenodd" clip-rule="evenodd" d="M0.5 40.5V0.5H45.1247V40.5H0.5ZM3.65927 3.40909V37.8333H41.9655L42.0313 3.40909H3.65927Z" fill="#27563A"/>
<path d="M25.116 16.9848H16.2964M25.116 16.9848C25.5109 16.9848 25.6426 17.1061 25.6426 17.4697V25.2273H24.0629V18.803H22.22V25.2273H20.5087V18.803H18.2709V25.2273H17.6127V28.0152H29.3284V13.3485H17.5909V16.9848M25.116 16.9848H17.5909M17.5909 16.9848H17.2178M17.2178 16.9848V13.3485H14.1902V10.803L32.1586 10.7424V30.6212L14.1902 30.5606V28.0152H17.2178V25.2273H16.2964V16.9848M17.2178 16.9848H16.2964M0.5 40.5V0.5H45.1247V40.5H0.5ZM3.65927 37.8333V3.40909H42.0313L41.9655 37.8333H3.65927Z" stroke="#27563A"/>
<path d="M57.468 28.5228V17.1591H54.0496V14.8864H62.1683V17.1591H58.7499V28.5228H57.468Z" fill="#27563A"/>
<path fill-rule="evenodd" clip-rule="evenodd" d="M64.7321 28.5228V14.8864H70.287C73.4917 14.6022 73.7054 20.2841 70.7143 21.1364C73.0644 21.9886 74.1327 26.8182 70.287 28.5228H64.7321ZM66.4413 22.8409V26.8182H70.287C71.3746 25.9561 71.8569 24.7542 70.7143 22.8409H66.4413ZM66.4413 17.1591V20.5682H70.287C71.2613 19.1364 71.3206 18.3839 70.287 17.1591H66.4413Z" fill="#27563A"/>
<path fill-rule="evenodd" clip-rule="evenodd" d="M74.9873 23.4091V19.4318C75.3921 16.2403 76.0219 14.9683 78.4057 14.3181H82.6787C85.1766 15.0695 86.0625 16.0419 86.0971 19.4318V23.4091C86.15 27.0918 85.2702 28.217 82.2514 28.5228H77.9784C76.0348 27.6011 75.3149 26.5716 74.9873 23.4091ZM81.8241 26.25H78.833C77.6126 25.9002 77.2266 25.2944 77.1238 23.4091V18.8636C77.4412 17.2862 77.8598 16.7236 79.2603 16.5909H82.2514C83.5333 16.5909 83.8356 17.7832 83.9606 19.4318V23.9773C83.9606 25.3977 82.8923 26.25 81.8241 26.25Z" fill="#27563A"/>
<path d="M88.2336 14.8863H90.3701V22.8409L94.2158 16.0227V14.8863H96.7796V28.5227H94.6431V19.4318L90.3701 26.25V28.5227H88.2336V14.8863Z" fill="#27563A"/>
<path d="M105.326 14.3181H107.462V21.1363H108.317L111.735 14.3181H114.299L110.453 21.1363V22.2727L114.299 28.5227H112.162L108.317 22.8409H107.462V28.5227H105.326V14.3181Z" fill="#27563A"/>
<path fill-rule="evenodd" clip-rule="evenodd" d="M116.649 27.9545V14.3181H122.204C125.409 14.034 125.622 19.7158 122.631 20.5681C124.981 21.4204 126.05 26.2499 122.204 27.9545H116.649ZM118.358 22.2727V26.2499H122.204C123.292 25.3879 123.774 24.1859 122.631 22.2727H118.358ZM118.358 16.5909V19.9999H122.204C123.178 18.5682 123.238 17.8157 122.204 16.5909H118.358Z" fill="#27563A"/>
<path fill-rule="evenodd" clip-rule="evenodd" d="M151.047 32.5V14.3181H157.456C160.02 14.3181 161.088 15.7386 160.875 19.4318V22.8409C160.875 25.3977 160.234 27.9545 157.884 27.9545H153.183V32.5H151.047ZM153.183 16.5909V25.1136L157.126 25.1119C158.333 25.0694 158.738 24.2248 158.738 22.8409V19.4318C158.738 17.7272 158.097 16.5909 156.602 16.5909H153.183Z" fill="#27563A"/>
<path d="M176.471 27.9545V16.5909H173.053V14.3182H181.171V16.5909H177.753V27.9545H176.471Z" fill="#27563A"/>
<path d="M183.522 28.5227V14.3182H185.658V20H190.358V14.3182H192.495V28.5227H190.358V22.8409H185.658V28.5227H183.522Z" fill="#27563A"/>
<path d="M202.427 28.5227V14.3182L204.563 14.3182V28.5227H202.427Z" fill="#27563A"/>
<path d="M206.189 14.255H208.325V22.2096L212.171 15.3914V14.255H214.735V29.0278H212.598V18.8005L208.325 25.6187V29.0278H206.189V14.255Z" fill="#27563A"/>
<path d="M220.269 29.0909V13.75H222.833L226.465 23.9773L229.884 13.75H232.661V29.0909H230.952V18.2955L226.465 27.9546L222.192 18.2955V29.0909H220.269Z" fill="#27563A"/>
<path fill-rule="evenodd" clip-rule="evenodd" d="M234.798 23.9773V18.2955C234.798 16.0227 235.225 13.75 237.361 13.75H242.062C243.344 13.75 244.198 14.6023 244.198 16.0227V22.2727H236.934V24.5455C236.934 25.6818 237.789 26.25 238.643 26.25H243.344V27.3864C243.344 28.5228 242.275 28.5228 241.207 28.5228H238.216C235.866 28.5228 234.798 27.1023 234.798 23.9773ZM236.934 18.2955V20H241.634V17.7273C241.634 17.1591 241.421 16.5909 240.78 16.5909H238.216C237.361 16.5909 236.934 17.4432 236.934 18.2955Z" fill="#27563A"/>
<path d="M249.112 16.0227H245.694V13.75H253.812V16.0227H250.394V28.5228H249.112V16.0227Z" fill="#27563A"/>
<path fill-rule="evenodd" clip-rule="evenodd" d="M256.163 31.9319V13.75H262.572C265.136 13.75 266.204 15.1705 265.991 18.8637V22.2727C265.991 24.8296 265.35 27.3864 262.999 27.3864H258.299V31.9319H256.163ZM258.299 16.0227V24.5455L262.242 24.5438C263.448 24.5012 263.854 23.6566 263.854 22.2727V18.8637C263.854 17.1591 263.213 16.0227 261.718 16.0227H258.299Z" fill="#27563A"/>
<path d="M207.237 12.0455V10.5H210.794H213.583L213.646 12.0455H212.364H207.237Z" fill="#27563A"/>
<path fill-rule="evenodd" clip-rule="evenodd" d="M140.792 14.3181H147.628V25.6818H148.91V31.3636H146.346V27.9545H139.937V31.3636H138.228V25.6818L140.364 14.8863C140.413 14.4211 140.386 14.3082 140.792 14.3181ZM145.919 16.5909V25.6818H140.792L142.501 16.5909H145.919Z" fill="#27563A"/>
<path d="M89.0882 13V11.4545H92.6455H95.4345L95.4977 13H94.2158H89.0882Z" fill="#27563A"/>
<path fill-rule="evenodd" clip-rule="evenodd" d="M171.343 27.9545V19.9999C171.343 17.1591 170.916 14.3181 168.352 14.3181H164.507C163.566 14.9187 163.297 15.3773 163.652 16.5909H167.925C168.993 16.5909 169.254 17.4391 169.207 18.2954V19.9999H164.934C163.225 19.9999 162.37 21.1363 162.37 22.8409V26.8182C162.37 27.9545 163.011 28.5227 164.507 28.5227H167.07H167.284H171.343V27.9545ZM164.507 25.6818V23.4091C164.731 22.1562 165.058 21.8824 165.789 21.7045H167.925C168.354 21.7278 168.531 21.8705 168.78 22.2727V25.6818C168.616 26.5594 168.246 26.693 167.498 26.8182H165.361C164.668 26.6522 164.495 26.3914 164.507 25.6818Z" fill="#27563A"/>
<path fill-rule="evenodd" clip-rule="evenodd" d="M196.768 14.3182H194.631V28.5227H198.477H200.614V25.6818C200.614 23.9773 200.62 22.2046 200.62 20.5H196.849L196.768 14.3182ZM199.08 24.5V22.8425C198.665 22.8428 198.994 22.8419 198.675 22.8425C198.016 22.8439 197.007 22.845 196.291 22.8409C196.262 23.5628 196.278 23.962 196.291 24.5C196.303 24.9972 196.313 25.6345 196.291 26.25H199.08V24.5Z" fill="#27563A"/>
<path fill-rule="evenodd" clip-rule="evenodd" d="M136.048 27.9545V19.9999C136.048 17.1591 135.62 14.3182 133.056 14.3182H129.211C128.27 14.9187 128.001 15.3773 128.356 16.5909H132.629C133.697 16.5909 133.958 17.4391 133.911 18.2954V19.9999H129.638C127.929 19.9999 127.074 21.1363 127.074 22.8409V26.8182C127.074 27.9545 127.715 28.5227 129.211 28.5227H131.775H131.988H136.048V27.9545ZM129.211 25.6818V23.4091C129.435 22.1562 129.762 21.8824 130.493 21.7045H132.629C133.058 21.7278 133.235 21.8705 133.484 22.2727V25.6818C133.32 26.5594 132.95 26.693 132.202 26.8182H130.065C129.372 26.6522 129.199 26.3914 129.211 25.6818Z" fill="#27563A"/>
<path d="M78.833 26.25C78.833 26.25 80.7558 26.25 81.8241 26.25M78.833 26.25C77.6126 25.9002 77.2266 25.2944 77.1238 23.4091V18.8636C77.4412 17.2862 77.8598 16.7236 79.2603 16.5909H82.2514C83.5333 16.5909 83.8356 17.7832 83.9606 19.4318M78.833 26.25H81.8241M81.8241 26.25C82.8923 26.25 83.9606 25.3977 83.9606 23.9773M83.9606 23.9773C83.9606 22.5568 83.9606 19.4318 83.9606 19.4318M83.9606 23.9773V19.4318M90.3701 22.8409V14.8863H88.2336V28.5227H90.3701V26.25L94.6431 19.4318V28.5227H96.7796V14.8863H94.2158V16.0227M90.3701 22.8409C91.8719 20.1782 92.714 18.6854 94.2158 16.0227M90.3701 22.8409L94.2158 16.0227M151.047 14.3181V32.5H153.183V27.9545H157.884C160.234 27.9545 160.875 25.3977 160.875 22.8409V19.4318C161.088 15.7386 160.02 14.3181 157.456 14.3181M151.047 14.3181C151.047 14.3181 154.892 14.3181 157.456 14.3181M151.047 14.3181H157.456M153.183 16.5909V25.1136L157.126 25.1119M153.183 16.5909C153.183 16.5909 155.106 16.5909 156.602 16.5909M153.183 16.5909H156.602M156.602 16.5909C158.097 16.5909 158.738 17.7272 158.738 19.4318M158.738 19.4318C158.738 19.4318 158.738 21.4204 158.738 22.8409M158.738 19.4318V22.8409M158.738 22.8409C158.738 24.2248 158.333 25.0694 157.126 25.1119M157.029 25.1136C157.062 25.1136 157.094 25.1131 157.126 25.1119M200.62 20.5H196.849L196.768 14.3182H194.631V28.5227H198.477H200.614V25.6818M200.62 20.5C200.62 22.2046 200.614 23.9773 200.614 25.6818M200.62 20.5C200.62 22.497 200.614 27.3864 200.614 25.6818M199.08 22.8425C199.08 22.8425 199.08 23.0795 199.08 24.5M199.08 22.8425V24.5M199.08 22.8425C198.665 22.8428 198.994 22.8419 198.675 22.8425C198.016 22.8439 197.007 22.845 196.291 22.8409C196.262 23.5628 196.278 23.962 196.291 24.5C196.303 24.9972 196.313 25.6345 196.291 26.25H199.08V24.5M234.798 23.9773C234.798 20.8523 234.798 20.5682 234.798 18.2955M234.798 23.9773C234.798 27.1023 235.866 28.5228 238.216 28.5228M234.798 23.9773V18.2955M234.798 18.2955C234.798 16.0227 235.225 13.75 237.361 13.75M237.361 13.75C239.498 13.75 240.78 13.75 242.062 13.75M237.361 13.75H242.062M242.062 13.75C243.344 13.75 244.198 14.6023 244.198 16.0227M244.198 16.0227C244.198 17.4432 244.198 22.2727 244.198 22.2727M244.198 16.0227V22.2727M244.198 22.2727H236.934M236.934 22.2727C236.934 22.2727 236.934 23.4091 236.934 24.5455M236.934 22.2727V24.5455M236.934 24.5455C236.934 25.6818 237.789 26.25 238.643 26.25M238.643 26.25C239.498 26.25 243.344 26.25 243.344 26.25M238.643 26.25H243.344M243.344 26.25C243.344 26.25 243.344 26.25 243.344 27.3864M243.344 26.25V27.3864M243.344 27.3864C243.344 28.5228 242.275 28.5228 241.207 28.5228M241.207 28.5228C240.139 28.5228 240.566 28.5228 238.216 28.5228M241.207 28.5228H238.216M236.934 20C236.934 20 236.934 19.1477 236.934 18.2955M236.934 20H241.634V17.7273C241.634 17.1591 241.421 16.5909 240.78 16.5909M236.934 20V18.2955M236.934 18.2955C236.934 17.4432 237.361 16.5909 238.216 16.5909M238.216 16.5909C239.071 16.5909 240.78 16.5909 240.78 16.5909M238.216 16.5909H240.78M262.145 24.5455C262.178 24.5455 262.21 24.5449 262.242 24.5438M262.242 24.5438C263.448 24.5012 263.854 23.6566 263.854 22.2727V18.8637C263.854 17.1591 263.213 16.0227 261.718 16.0227H258.299V24.5455L262.242 24.5438ZM57.468 28.5228V17.1591H54.0496V14.8864H62.1683V17.1591H58.7499V28.5228H57.468ZM64.7321 28.5228V14.8864H70.287C73.4917 14.6022 73.7054 20.2841 70.7143 21.1364C73.0644 21.9886 74.1327 26.8182 70.287 28.5228H64.7321ZM66.4413 26.8182V22.8409H70.7143C71.8569 24.7542 71.3746 25.9561 70.287 26.8182H66.4413ZM66.4413 20.5682V17.1591H70.287C71.3206 18.3839 71.2613 19.1364 70.287 20.5682H66.4413ZM74.9873 23.4091V19.4318C75.3921 16.2403 76.0219 14.9683 78.4057 14.3181H82.6787C85.1766 15.0695 86.0625 16.0419 86.0971 19.4318V23.4091C86.15 27.0918 85.2702 28.217 82.2514 28.5228H77.9784C76.0348 27.6011 75.3149 26.5716 74.9873 23.4091ZM105.326 14.3181H107.462V21.1363H108.317L111.735 14.3181H114.299L110.453 21.1363V22.2727L114.299 28.5227H112.162L108.317 22.8409H107.462V28.5227H105.326V14.3181ZM116.649 27.9545V14.3181H122.204C125.409 14.034 125.622 19.7158 122.631 20.5681C124.981 21.4204 126.05 26.2499 122.204 27.9545H116.649ZM118.358 26.2499V22.2727H122.631C123.774 24.1859 123.292 25.3879 122.204 26.2499H118.358ZM118.358 19.9999V16.5909H122.204C123.238 17.8157 123.178 18.5682 122.204 19.9999H118.358ZM140.792 14.3181H147.628V25.6818H148.91V31.3636H146.346V27.9545H139.937V31.3636H138.228V25.6818L140.364 14.8863C140.413 14.4211 140.386 14.3082 140.792 14.3181ZM145.919 25.6818V16.5909H142.501L140.792 25.6818H145.919ZM171.344 27.9545V19.9999C171.344 17.1591 170.916 14.3181 168.352 14.3181H164.507C163.566 14.9187 163.297 15.3773 163.652 16.5909H167.925C168.993 16.5909 169.254 17.4391 169.207 18.2954V19.9999H164.934C163.225 19.9999 162.37 21.1363 162.37 22.8409V26.8182C162.37 27.9545 163.011 28.5227 164.507 28.5227H167.07H167.284H171.344V27.9545ZM164.507 23.4091V25.6818C164.495 26.3914 164.668 26.6522 165.361 26.8182H167.498C168.246 26.693 168.616 26.5594 168.78 25.6818V22.2727C168.531 21.8705 168.354 21.7278 167.925 21.7045H165.789C165.058 21.8824 164.731 22.1562 164.507 23.4091ZM176.471 27.9545V16.5909H173.053V14.3182H181.171V16.5909H177.753V27.9545H176.471ZM183.522 28.5227V14.3182H185.658V20H190.358V14.3182H192.495V28.5227H190.358V22.8409H185.658V28.5227H183.522ZM206.189 14.255H208.325V22.2096L212.171 15.3914V14.255H214.735V29.0278H212.598V18.8005L208.325 25.6187V29.0278H206.189V14.255ZM207.237 12.0455V10.5H210.794H213.583L213.646 12.0455H212.364H207.237ZM202.427 28.5227V14.3182L204.563 14.3182V28.5227H202.427ZM220.269 29.0909V13.75H222.833L226.465 23.9773L229.884 13.75H232.661V29.0909H230.952V18.2955L226.465 27.9546L222.192 18.2955V29.0909H220.269ZM249.112 16.0227H245.694V13.75H253.812V16.0227H250.394V28.5228H249.112V16.0227ZM256.163 31.9319V13.75H262.572C265.136 13.75 266.204 15.1705 265.991 18.8637V22.2727C265.991 24.8296 265.35 27.3864 262.999 27.3864H258.299V31.9319H256.163ZM89.0882 13V11.4545H92.6455H95.4345L95.4977 13H94.2158H89.0882ZM136.048 27.9545V19.9999C136.048 17.1591 135.62 14.3182 133.056 14.3182H129.211C128.27 14.9187 128.001 15.3773 128.356 16.5909H132.629C133.697 16.5909 133.958 17.4391 133.911 18.2954V19.9999H129.638C127.929 19.9999 127.074 21.1363 127.074 22.8409V26.8182C127.074 27.9545 127.715 28.5227 129.211 28.5227H131.775H131.988H136.048V27.9545ZM129.211 23.4091V25.6818C129.199 26.3914 129.372 26.6522 130.065 26.8182H132.202C132.95 26.693 133.32 26.5594 133.484 25.6818V22.2727C133.235 21.8705 133.058 21.7278 132.629 21.7045H130.493C129.762 21.8824 129.435 22.1562 129.211 23.4091Z" stroke="#27563A"/>
</svg>
